<?xml version="1.0" standalone="no"?>
<!DOCTYPE svg PUBLIC "-//W3C//DTD SVG 20010904//EN"
 "http://www.w3.org/TR/2001/REC-SVG-20010904/DTD/svg10.dtd">
<svg version="1.0" xmlns="http://www.w3.org/2000/svg"
 width="700.000000pt" height="700.000000pt" viewBox="0 0 700.000000 700.000000"
 preserveAspectRatio="xMidYMid meet">
<metadata>
Created by potrace 1.11, written by Peter Selinger 2001-2013
</metadata>
<g transform="translate(0.000000,700.000000) scale(0.100000,-0.100000)"
fill="#000000" stroke="none">
<path d="M1590 3409 l0 -2449 53 -1 c28 0 378 0 777 0 684 1 824 3 980 16 62
5 95 8 213 20 28 3 90 12 137 20 47 8 103 17 125 21 82 12 324 74 430 109 433
145 751 366 981 680 47 64 164 256 164 268 0 3 16 41 36 84 65 139 152 435
170 573 2 19 6 42 9 50 2 8 7 42 11 75 3 33 8 68 10 78 25 135 25 789 -1 927
-3 17 -12 78 -20 135 -3 22 -7 47 -10 55 -2 8 -6 33 -10 55 -26 179 -122 463
-217 643 -240 453 -638 762 -1194 926 -181 54 -410 102 -579 122 -33 3 -68 8
-77 10 -9 1 -60 6 -114 9 -53 4 -109 9 -123 12 -14 2 -414 6 -888 8 l-863 3 0
-2449z m1620 1897 c102 -4 199 -8 215 -11 17 -2 57 -6 89 -10 207 -20 515
-108 681 -193 185 -94 385 -257 470 -383 16 -24 32 -46 35 -49 29 -28 119
-201 160 -305 29 -76 76 -236 86 -294 3 -14 9 -42 14 -61 4 -19 11 -57 15 -83
3 -27 8 -57 10 -67 26 -137 27 -709 1 -870 -3 -14 -10 -59 -16 -100 -43 -274
-144 -543 -277 -735 -68 -97 -213 -243 -308 -309 -174 -122 -459 -238 -665
-271 -19 -3 -42 -8 -50 -10 -97 -28 -573 -65 -585 -46 -2 4 -5 29 -6 55 -4 63
-24 88 -103 121 -55 23 -67 34 -89 74 -13 25 -35 78 -47 116 -13 39 -38 101
-57 139 -19 38 -36 83 -37 100 -4 47 21 142 50 191 20 35 26 61 31 137 7 121
18 133 17 18 l-1 -90 33 0 c20 0 34 5 35 13 1 17 1 680 0 693 -1 13 -49 36
-60 29 -5 -2 -8 -74 -8 -160 0 -85 -2 -157 -4 -160 -3 -2 -25 26 -49 62 -25
36 -60 80 -79 98 l-34 33 13 67 c15 81 16 151 1 188 -6 15 -9 27 -7 27 2 0 48
-21 102 -46 55 -25 123 -57 153 -71 42 -19 66 -24 112 -21 l59 3 121 -280
c164 -378 156 -361 190 -375 78 -33 169 31 169 118 0 16 -13 60 -29 98 -25 61
-149 348 -185 429 -8 17 -35 80 -61 140 -27 61 -52 114 -56 119 -4 5 -99 8
-211 8 l-203 -1 -2 35 -3 34 211 0 211 0 -4 233 c-5 243 -12 280 -55 319 -25
23 -48 26 -165 27 l-96 1 -84 132 c-46 73 -87 140 -93 150 -41 70 -129 208
-148 232 -16 20 -33 29 -55 30 -31 1 -32 3 -32 43 0 51 -17 91 -42 99 -26 8
-94 96 -108 139 -9 26 -9 48 0 92 23 109 21 130 -22 181 -21 26 -41 62 -44 81
-4 19 -13 46 -20 60 -8 14 -14 31 -14 36 0 11 610 11 930 1z m-546 -1181 c53
-85 96 -159 96 -165 0 -5 -12 -13 -27 -16 -16 -4 -32 -10 -38 -14 -5 -4 -29
-14 -52 -23 l-43 -17 -16 31 c-14 27 -14 38 -3 78 16 55 13 94 -10 141 -9 19
-16 42 -15 50 0 8 2 32 2 53 1 20 4 37 6 37 2 0 47 -70 100 -155z m176 -506
c0 -185 12 -173 -114 -113 l-71 34 3 44 4 44 51 -34 c28 -18 53 -31 55 -29 3
3 5 17 6 32 1 22 -7 33 -39 54 -22 14 -48 34 -58 44 -18 18 -17 19 45 42 34
14 70 28 78 33 38 22 40 15 40 -151z"/>
<path d="M3037 4387 c-49 -12 -103 -65 -117 -116 -29 -110 71 -225 180 -206
150 26 195 216 72 298 -44 29 -84 36 -135 24z"/>
</g>
</svg>
