<svg xmlns="http://www.w3.org/2000/svg" version="1.1" xmlns:xlink="http://www.w3.org/1999/xlink" width="200" height="200"><svg xmlns:dc="http://purl.org/dc/elements/1.1/" xmlns:cc="http://creativecommons.org/ns#" xmlns:rdf="http://www.w3.org/1999/02/22-rdf-syntax-ns#" xmlns:svg="http://www.w3.org/2000/svg" xmlns="http://www.w3.org/2000/svg" xmlns:sodipodi="http://sodipodi.sourceforge.net/DTD/sodipodi-0.dtd" xmlns:inkscape="http://www.inkscape.org/namespaces/inkscape" height="200" width="200" fill="#000000" version="1.0" x="0px" y="0px" viewBox="0 0 150.944 200" enable-background="new 0 0 75.472 100" xml:space="preserve" id="SvgjsSvg1104" sodipodi:docname="noun_Rock Climbing_529.svg" inkscape:version="1.0.1 (0767f8302a, 2020-10-17)"><metadata id="SvgjsMetadata1103"><rdf:rdf><cc:work rdf:about=""><dc:format>image/svg+xml</dc:format><dc:type rdf:resource="http://purl.org/dc/dcmitype/StillImage"></dc:type><dc:title></dc:title></cc:work></rdf:rdf></metadata><defs id="SvgjsDefs1102"></defs><sodipodi:namedview pagecolor="#ffffff" bordercolor="#666666" borderopacity="1" objecttolerance="10" gridtolerance="10" guidetolerance="10" inkscape:pageopacity="0" inkscape:pageshadow="2" inkscape:window-width="1920" inkscape:window-height="1173" id="SvgjsSodipodi:namedview1101" showgrid="false" inkscape:zoom="3.96801" inkscape:cx="48.878664" inkscape:cy="100.67701" inkscape:window-x="0" inkscape:window-y="27" inkscape:window-maximized="1" inkscape:current-layer="svg1502" width="200px"></sodipodi:namedview><text xml:space="preserve" style="font-size:192px;line-height:1.25;font-family:sans-serif" x="2.1120617" y="172.62807" id="SvgjsText1100"><tspan sodipodi:role="line" id="SvgjsTspan1099" x="2.1120617" y="172.62807">D</tspan></text><g id="SvgjsG1098" transform="matrix(1.1498517,0,0,1.1498517,36.220812,40.588123)"><path d="m 20.84526,60.873165 c 0.522793,0.19458 1.105973,0.303612 1.700895,0.303612 0.643567,0 1.275951,-0.07325 1.859131,-0.243784 l 6.608999,15.18728 c 0.595481,1.397843 2.260032,1.871991 3.705961,1.057328 1.445928,-0.813544 2.126398,-2.599428 1.506315,-3.996711 L 28.13473,54.603562 H 17.806909 v -1.737239 l -5.224576,-2.43001 C 11.209651,49.768145 9.4355096,50.910462 9.0709522,52.35639 l -2.562525,10.278616 c -0.3645574,1.45767 0.522234,2.927642 1.9799042,3.292758 1.4576703,0.365117 2.9405016,-0.522793 3.3050586,-1.980463 l 1.627648,-6.548613 z" id="SvgjsPath1097" style="stroke-width:0.559137"></path><path d="M 16.08309,50.229992 C 4.7711884,44.616815 0.38475832,25.395361 0.38475832,23.791756 H 1.9402776 c 0.5831799,4.009013 5.443199,20.047299 14.1428124,24.700438 z" id="SvgjsPath1096" style="stroke-width:0.559137"></path><path d="m 28.135848,44.579912 v 8.298153 H 17.808028 V 43.268177 L 8.5498365,28.457195 C 7.8693667,27.375824 8.1852792,25.942197 9.2789512,25.249985 10.360322,24.569516 11.79395,24.885428 12.401172,25.942197 l 7.861467,12.587293 4.738687,0.01174 c 0,0 -0.304171,-0.121332 0,0 2.855837,0.03047 3.123131,3.323008 3.134527,6.038686 z" id="SvgjsPath1095" style="stroke-width:0.559137" sodipodi:nodetypes="cccccccccccc"></path><path d="m 23.676171,37.690785 c -2.271215,0 -4.118604,-1.834529 -4.118604,-4.106862 0,-2.271774 1.847389,-4.118603 4.118604,-4.118603 2.272333,0 4.119162,1.846829 4.119162,4.118603 0,2.272333 -1.846829,4.106862 -4.119162,4.106862 z" id="SvgjsPath1094" style="stroke-width:0.559137"></path><polygon points="41.204,68.317 41.204,100 44.312,100 44.312,66.862 " id="SvgjsPolygon1093" transform="matrix(-0.55913704,0,0,0.55913704,42.583949,23.791756)"></polygon><path d="m 8.987641,46.02584 c 0.594922,0.923136 1.785884,1.336338 2.843212,0.899093 l 5.977175,-2.345021 v 8.298153 h 10.32782 L 27.757863,43.315237 25.735014,38.966069 20.94255,38.54123 c -0.303611,0 -0.607222,0.04865 -0.911393,0.169978 l -2.248851,0.882285 -5.92741,2.325484 L 7.639003,35.52804 C 6.946791,34.45897 5.512605,34.143058 4.431793,34.83527 3.350422,35.52804 3.034509,36.973969 3.726721,38.054781 Z" id="SvgjsPath1092" style="stroke-width:0.559137" sodipodi:nodetypes="ccccccccccccccc"></path></g><path style="fill:#000000;stroke:#000000;stroke-width:1px;stroke-linecap:butt;stroke-linejoin:miter;stroke-opacity:1" d="m 40.017311,48.293705 c 0.859281,2.346398 -0.369546,-0.988948 0.887995,2.326403 0.09526,0.251156 0.444211,1.817647 0.460223,1.839137 0.614332,0.82452 1.340015,1.558584 1.961947,2.404374 0.143081,0.194581 -0.01246,0.903738 0,1.090688 0.01671,0.250643 0.111535,0.606535 0.06246,0.880494 -0.242142,1.351638 -0.940104,2.88484 -0.554672,4.27241 0.430159,1.548588 1.565506,3.026503 2.763685,4.104828 0.898669,0.808775 1.296404,0.33026 1.533221,1.632725 0.295336,1.624306 -0.155462,3.35788 0.124903,4.972581 0.327332,1.885196 0.748311,3.580538 0.936829,5.465665 0.101786,1.017832 -0.456614,2.866164 -0.18737,3.642911 0.491219,1.41713 0.930831,1.396958 0.999286,2.766019 0.0041,0.08243 0.160692,0.97551 0.06246,1.211534 -0.26101,0.627115 -1.865166,4.777301 -1.701897,5.005644 0.549578,0.768623 1.424851,1.210531 1.968073,1.91061 0.223634,0.288209 0.385505,0.825241 0.623177,1.061968 0.08047,0.08015 0.671234,0.2838 0.848598,0.604246 0.08278,0.149558 -0.03061,0.440851 0,0.618913 0.22133,1.287688 0.254907,2.624591 0.12185,3.928561 -0.128292,1.257275 -1.065325,4.553434 -0.624546,5.944934 0.135869,0.42892 0.546568,0.96741 0.725603,1.39262 0.374393,0.88917 1.099847,2.94846 1.160254,3.67188 0.09227,1.10497 -0.03634,2.25146 -0.187371,3.33886 -0.09406,0.67722 -0.720808,2.02426 -0.437186,2.72118 0.30142,0.74067 1.310982,1.15143 1.760853,1.81308 1.180577,1.73635 2.402317,3.45466 3.683615,5.11498 0.48525,0.6288 -0.758872,4.31151 -0.936829,4.98775 -0.528282,2.00748 -0.05673,4.10709 -0.718231,6.09162 -0.170522,0.51158 -0.52186,0.94416 -0.786489,1.40411 -0.774311,1.34586 -1.436897,4.2755 -1.113562,5.81145 0.254161,1.20735 1.558119,2.9105 2.02198,4.25991 0.562923,1.63759 1.666199,5.70094 2.911737,6.75485 1.047322,0.88619 3.514049,1.35934 4.295829,2.2979 0.343264,0.4121 0.254791,3.48346 0.512155,4.32135 l -23.412339,0.15633 z" id="SvgjsPath1091"></path></svg><style>@media (prefers-color-scheme: light) { :root { filter: none; } }
@media (prefers-color-scheme: dark) { :root { filter: invert(100%); } }
</style></svg>